<?xml version="1.0" encoding="utf-8"?>
<!-- Generator: Adobe Illustrator 24.1.2, SVG Export Plug-In . SVG Version: 6.00 Build 0)  -->
<svg version="1.1" id="Calque_1" xmlns="http://www.w3.org/2000/svg" xmlns:xlink="http://www.w3.org/1999/xlink" x="0px" y="0px"
	 viewBox="0 0 1920 1080" style="enable-background:new 0 0 1920 1080;" xml:space="preserve">
<style type="text/css">
	.st0{fill:#170100;stroke:#000000;stroke-miterlimit:10;}
	.st1{stroke:#000000;stroke-miterlimit:10;}
	.st2{fill:#FFFFFF;stroke:#000000;stroke-miterlimit:10;}
</style>
<path class="st0" d="M133.71,85.54l0.14-25l-20.19-16.07c-2.75-2.34-2.61-5.49,0.82-4.4c3.01,0.96,21.98,18.68,21.98,18.68
	l0.41,26.92L133.71,85.54z"/>
<path class="st0" d="M137.36,156.5l-22.98,25.06l-10.23,39.7c0,0-21.77-7.68-24.96-3.33c-7.48,10.2,13.97,13.93,21.71,15.92
	c2.91,0.75,11.62,2.99,13.87-5.72c1-3.87-6.75-5.87-6.75-5.87l9.98-38.74l20.79-24.59L137.36,156.5z"/>
<path class="st0" d="M242.49,220.47c3.03,1.75,1.38-48.87-33.19-66.54c-26.7-13.65-56.09-0.75-50.88,26.03
	c3.54,18.22,23.6,29.14,34.32,31.39C205.29,213.98,216.59,205.5,242.49,220.47z"/>
<circle class="st0" cx="154" cy="146" r="24.5"/>
<path class="st0" d="M84.5,122.5c-3.16,0,21-43,56-41c27.03,1.54,44.17,27.42,28,48c-11,14-31.6,13.42-41,10
	C116.5,135.5,111.5,122.5,84.5,122.5z"/>
<path class="st0" d="M156.5,163.5l-16,30l25,42c0,0-10-1-12,4c-4.7,11.74,12,8,20,8c3,0,12.02-0.95,8-9c-2-4-12-4-12-4l-25-40l14-29
	L156.5,163.5z"/>
<ellipse transform="matrix(0.9864 -0.1646 0.1646 0.9864 -16.0024 23.8625)" class="st1" cx="136" cy="108.5" rx="12.5" ry="10"/>
<ellipse class="st2" cx="129.5" cy="106" rx="3" ry="2.5"/>
<path class="st0" d="M142.5,85.5l7-24l-15-21c-2-3-1-6,2-4c2.63,1.75,16,24,16,24l-7,26L142.5,85.5z"/>
</svg>
