<?xml version="1.0" encoding="utf-8"?>
<!-- Generator: Adobe Illustrator 24.1.2, SVG Export Plug-In . SVG Version: 6.00 Build 0)  -->
<svg version="1.1" id="Calque_1" xmlns="http://www.w3.org/2000/svg" xmlns:xlink="http://www.w3.org/1999/xlink" x="0px" y="0px"
	 viewBox="0 0 1920 1080" style="enable-background:new 0 0 1920 1080;" xml:space="preserve">
<style type="text/css">
	.st0{fill:#FFFFFF;stroke:#000000;stroke-miterlimit:10;}
	.st1{fill:#B9000F;stroke:#000000;stroke-miterlimit:10;}
	.st2{stroke:#000000;stroke-miterlimit:10;}
</style>
<path class="st0" d="M150.51,124c5.42-27.65,46.34-84.32,61.23-93.06c0,0,39.73-31.49,39.79-6.49c0.06,27.8-80.41,98.7-89.05,101.24
	C152.88,128.52,150.51,124,150.51,124z"/>
<path class="st1" d="M148.21,145.64l-15.08,30.47l1.25,40.98c0,0-23.05-1.3-24.9,3.76c-4.34,11.88,17.3,9.48,25.29,9.23
	c3-0.09,11.99-0.37,11.72-9.36c-0.12-4-8.12-3.75-8.12-3.75l-1.22-39.98l13.11-29.41L148.21,145.64z"/>
<path class="st1" d="M97.71,101.54l0.14-25L77.66,60.46c-2.75-2.34-2.61-5.49,0.82-4.4c3.01,0.96,21.98,18.68,21.98,18.68
	l0.41,26.92L97.71,101.54z"/>
<path class="st1" d="M246.49,199.47c3.03,1.75,1.38-48.87-33.19-66.54c-26.7-13.65-56.09-0.75-50.88,26.03
	c3.54,18.22,23.6,29.14,34.32,31.39C209.29,192.98,220.59,184.5,246.49,199.47z"/>
<circle class="st1" cx="154" cy="139" r="24.5"/>
<path class="st1" d="M59.5,136.5c-3.16,0,21-43,56-41c27.03,1.54,44.17,27.42,28,48c-11,14-31.6,13.42-41,10
	C91.5,149.5,86.5,136.5,59.5,136.5z"/>
<path class="st2" d="M113.33,123.44c0.91,5.45-3.87,10.78-10.68,11.92c-6.81,1.14-15.42-2.48-13.98-7.81
	c0.83-3.06,4.65-5.97,10.83-9.06C105.5,115.5,112.42,118,113.33,123.44z"/>
<ellipse class="st0" cx="97.5" cy="125" rx="3" ry="2.5"/>
<path class="st1" d="M110.5,100.5l7-24l-15-21c-2-3-1-6,2-4c2.63,1.75,16,24,16,24l-7,26L110.5,100.5z"/>
<path class="st1" d="M157.94,152.03l-12.8,31.5l4.25,40.78c0,0-23.08,0.4-24.55,5.58c-3.45,12.17,17.95,8.18,25.9,7.35
	c2.98-0.31,11.94-1.24,11-10.2c-0.41-3.98-8.37-3.15-8.37-3.15l-4.15-39.78l10.92-30.3L157.94,152.03z"/>
<path class="st0" d="M158.5,122.5c13-25,68.25-67.81,85-72c0,0,47-19,40,5c-7.78,26.69-105,72-114,72
	C159.5,127.5,158.5,122.5,158.5,122.5z"/>
</svg>
