<?xml version="1.0" encoding="utf-8"?>
<!-- Generator: Adobe Illustrator 24.1.2, SVG Export Plug-In . SVG Version: 6.00 Build 0)  -->
<svg version="1.1" id="Calque_1" xmlns="http://www.w3.org/2000/svg" xmlns:xlink="http://www.w3.org/1999/xlink" x="0px" y="0px"
	 viewBox="0 0 1920 1080" style="enable-background:new 0 0 1920 1080;" xml:space="preserve">
<style type="text/css">
	.st0{fill:#9B4724;stroke:#9B4724;stroke-width:11;stroke-miterlimit:10;}
	.st1{fill:#9B4724;stroke:#000000;stroke-width:6;stroke-miterlimit:10;}
	.st2{fill:#FFCA00;stroke:#000000;stroke-width:2;stroke-miterlimit:10;}
	.st3{fill:#9B4724;stroke:#000000;stroke-width:11;stroke-miterlimit:10;}
	.st4{fill:#9B4724;}
	.st5{stroke:#000000;stroke-miterlimit:10;}
	.st6{fill:#FFFFFF;stroke:#000000;stroke-width:5;stroke-miterlimit:10;}
	.st7{stroke:#000000;stroke-width:4.9998;stroke-miterlimit:9.9996;}
	.st8{fill:#9B4724;stroke:#000000;stroke-width:8;stroke-miterlimit:10;}
	.st9{fill:#B46F00;}
	.st10{fill:#9B4724;stroke:#000000;stroke-width:4;stroke-miterlimit:10;}
	.st11{fill:#9B4724;stroke:#9B4724;stroke-width:4.0001;stroke-miterlimit:10.0002;}
	.st12{fill:none;stroke:#000000;stroke-width:4;stroke-miterlimit:10;}
	.st13{fill:#FFFFFF;}
</style>
<path class="st0" d="M841.6,664c-95.7,8.6-135.7-134.8-142.5-207.3c0-18.5-6.8-36.6-19.8-49.8c-42.8-43.4-127.7-22.5-115.5,78.5
	c11.4,95.2,139.1,235.1,277.8,205C841.9,690.2,841.6,664,841.6,664z"/>
<path class="st1" d="M991.1,140.6c0,0,30.8-82.2,72.5-63.3c33.9,15.3,16.7,75.7-3.7,96.5C1035.8,150.4,991.1,140.6,991.1,140.6z"/>
<polygon class="st2" points="912.6,112.1 995,93.6 993.2,12.4 964.3,56.1 938.3,19 925.6,61.9 880.2,31.8 "/>
<path class="st3" d="M1066.5,755.9c1.9-17.3-31.2-33.9-70.5-33.3c-34.8,0.5-56.1,11-51.4,27.8c4.7,16.8,17,39.6,51.7,36.5
	C1034.7,783.5,1064.8,772,1066.5,755.9z"/>
<g>
	<ellipse class="st4" cx="930" cy="624" rx="131.5" ry="141.5"/>
	<path class="st4" d="M930,488c33.5,0,65,14,88.8,39.5c24,25.7,37.2,60,37.2,96.5s-13.2,70.7-37.2,96.5C995,746,963.5,760,930,760
		s-65-14-88.8-39.5c-24-25.7-37.2-60-37.2-96.5s13.2-70.7,37.2-96.5C865,502,896.5,488,930,488 M930,477c-75.7,0-137,65.8-137,147
		s61.3,147,137,147s137-65.8,137-147S1005.7,477,930,477L930,477z"/>
</g>
<g>
	<circle class="st4" cx="937" cy="320" r="194.5"/>
	<path class="st4" d="M937,131c25.5,0,50.3,5,73.6,14.9c22.5,9.5,42.7,23.1,60.1,40.5s31,37.6,40.5,60.1c9.8,23.3,14.8,48,14.8,73.6
		s-5,50.3-14.8,73.6c-9.5,22.5-23.2,42.7-40.5,60.1c-17.4,17.4-37.6,31-60.1,40.5c-23.3,9.8-48,14.8-73.6,14.8s-50.3-5-73.6-14.9
		c-22.5-9.5-42.7-23.1-60.1-40.5s-31-37.6-40.5-60.1c-9.8-23.3-14.8-48-14.8-73.6s5-50.3,14.8-73.6c9.5-22.5,23.2-42.7,40.5-60.1
		s37.6-31,60.1-40.5C886.7,136,911.5,131,937,131 M937,120c-110.5,0-200,89.5-200,200s89.5,200,200,200s200-89.5,200-200
		S1047.5,120,937,120L937,120z"/>
</g>
<path class="st5" d="M1119.5,239.5c0,0-178.7-50.7-245,22c-62,68,12,116,63,94c69.4-29.9,110.6-34.3,196-1
	C1146.5,287.5,1119.5,239.5,1119.5,239.5z"/>
<path class="st6" d="M1099,427.6c0,0-2.7,13.3-43,48.3c-70.2-59.8-151.2-46.2-151.2-46.2C1036.7,370.6,1099,427.6,1099,427.6z"/>
<ellipse transform="matrix(9.640410e-02 -0.9953 0.9953 9.640410e-02 588.7031 1385.5533)" class="st7" cx="1057.5" cy="368.5" rx="10" ry="14"/>
<path class="st6" d="M946.6,429.5c2.6-13-2.6-15.8-2.6-15.8"/>
<path class="st6" d="M969.2,408.4c9,15,4.5,25.7,4.5,25.7"/>
<path class="st6" d="M996.2,402.3c10.7,22.6,0,38.6,0,38.6"/>
<path class="st6" d="M1023.9,453.6c12.4-34.2,11.6-50.9,11.6-50.9"/>
<path class="st6" d="M1079.6,415.9c-8.2,31.6-36,50.3-36,50.3"/>
<path class="st8" d="M823.4,190c1.9,6.1,5.6,3.9,6.7,0.6c4.1-10.4,30.8-27.8,58.7-26.1c22,1.3-15.4-102.6-54.9-87.4
	C790.2,93.8,814.3,160.6,823.4,190z"/>
<g>
	<ellipse class="st9" cx="1002.7" cy="625" rx="52" ry="79.5"/>
	<path d="M1002.7,551c10.5,0,21.3,7,29.8,19.3c10,14.4,15.5,33.9,15.5,54.7s-5.5,40.3-15.5,54.7c-8.5,12.3-19.4,19.3-29.8,19.3
		c-10.5,0-21.3-7-29.8-19.3c-10-14.4-15.5-33.9-15.5-54.7s5.5-40.3,15.5-54.7C981.4,558,992.3,551,1002.7,551 M1002.7,540
		c-32.5,0-58.8,38.1-58.8,85s26.3,85,58.8,85s58.8-38.1,58.8-85S1035.2,540,1002.7,540L1002.7,540z"/>
</g>
<polygon class="st10" points="896.2,576.6 891.1,498.7 894,467.2 876.7,489.8 868,466.1 866.3,489.2 841.7,476.5 858.8,505.3 
	875.8,577.3 "/>
<rect x="867.9" y="575.2" transform="matrix(0.9997 -2.568291e-02 2.568291e-02 0.9997 -14.7378 22.9451)" class="st11" width="36" height="20"/>
<path class="st12" d="M1057,349"/>
<path class="st12" d="M1057,397"/>
<path class="st3" d="M928.4,794.9c10.2-14.1-10.3-44.9-44.6-63.9c-30.4-16.9-54.2-18.3-58.4-1.4s-4.9,42.8,26.7,57.3
	C887.1,803,918.9,808,928.4,794.9z"/>
<path d="M563.4,451.7c0,0,60.9-48.1,136.1,8.4c0.5-0.3,7.4,44.8,7.4,44.8s-64-42.8-141.1-7.2C566.1,498.4,563.4,451.7,563.4,451.7z"
	/>
<path d="M578.7,537.5c0,0,69.5-47,135.4-6.4l7.4,26c0,0-63.7-8.7-116,26L578.7,537.5z"/>
<path d="M736.6,589.1c0,0-55.6-7.4-90.8,31.9l43.1,39.1c0,0,10.4-42.3,66.1-40.3L736.6,589.1z"/>
<path d="M771.9,640.9c-19.2,7.3-21.8,16-28.7,42.4c0.2,0.3,35.5,6.1,35.5,6.1s-0.9-17.2,14.4-33.7
	C793.3,656,771.9,640.9,771.9,640.9z"/>
<rect x="921.3" y="283.1" transform="matrix(0.7561 -0.6545 0.6545 0.7561 40.8867 688.5464)" class="st13" width="45.7" height="12.6"/>
<rect x="1083.5" y="285.1" transform="matrix(-0.866 -0.5 0.5 -0.866 1908.0989 1090.4231)" class="st13" width="33.2" height="9"/>
<rect x="920.5" y="283.8" transform="matrix(0.6545 0.7561 -0.7561 0.6545 544.9915 -613.7143)" class="st13" width="47" height="11.3"/>
<rect x="1083.5" y="285.1" transform="matrix(0.7561 -0.6545 0.6545 0.7561 78.8204 790.6411)" class="st13" width="33.2" height="9"/>
</svg>
