<?xml version="1.0" encoding="utf-8"?>
<!-- Generator: Adobe Illustrator 24.1.2, SVG Export Plug-In . SVG Version: 6.00 Build 0)  -->
<svg version="1.1" id="Calque_1" xmlns="http://www.w3.org/2000/svg" xmlns:xlink="http://www.w3.org/1999/xlink" x="0px" y="0px"
	 viewBox="0 0 1920 1080" style="enable-background:new 0 0 1920 1080;" xml:space="preserve">
<style type="text/css">
	.st0{fill:#9B4724;stroke:#000000;stroke-width:6;stroke-miterlimit:10;}
	.st1{fill:#FFCA00;stroke:#000000;stroke-width:2;stroke-miterlimit:10;}
	.st2{fill:#9B4724;stroke:#000000;stroke-width:11;stroke-miterlimit:10;}
	.st3{fill:#9B4724;}
	.st4{stroke:#000000;stroke-miterlimit:10;}
	.st5{fill:#FFFFFF;stroke:#000000;stroke-miterlimit:10;}
	.st6{fill:#FFFFFF;stroke:#000000;stroke-width:5;stroke-miterlimit:10;}
	.st7{fill:#FFFFFF;stroke:#000000;stroke-width:8;stroke-miterlimit:10;}
	.st8{stroke:#000000;stroke-width:4.9998;stroke-miterlimit:9.9996;}
	.st9{fill:#9B4724;stroke:#000000;stroke-width:8;stroke-miterlimit:10;}
	.st10{fill:#B46F00;}
	.st11{fill:#9B4724;stroke:#000000;stroke-width:4;stroke-miterlimit:10;}
	.st12{fill:#9B4724;stroke:#9B4724;stroke-width:4.0001;stroke-miterlimit:10.0002;}
	.st13{fill:none;stroke:#000000;stroke-width:4;stroke-miterlimit:10;}
	.st14{fill:#9B4724;stroke:#9B4724;stroke-width:11;stroke-miterlimit:10;}
</style>
<path class="st0" d="M1005,143.3c0,0,41-77.5,80-53.5c31.7,19.5,6.9,77.3-16,95.2C1048,158.7,1005,143.3,1005,143.3z"/>
<polygon class="st1" points="903,126 987.5,126.4 1004,47 966,83 949,41 927,80 889.5,40.5 "/>
<path class="st2" d="M898.3,825.5c16.9,4.1,37.6-26.7,42-65.7c3.9-34.6-3.8-57-21-54.6c-17.2,2.5-41.4,11.8-42.8,46.6
	C875,790.5,882.6,821.7,898.3,825.5z"/>
<g>
	<ellipse class="st3" cx="930" cy="624" rx="131.5" ry="141.5"/>
	<path class="st3" d="M930,488c33.5,0,65,14,88.8,39.5c24,25.7,37.2,60,37.2,96.5s-13.2,70.7-37.2,96.5C995,746,963.5,760,930,760
		s-65-14-88.8-39.5c-24-25.7-37.2-60-37.2-96.5s13.2-70.7,37.2-96.5C865,502,896.5,488,930,488 M930,477c-75.7,0-137,65.8-137,147
		s61.3,147,137,147s137-65.8,137-147S1005.7,477,930,477L930,477z"/>
</g>
<g>
	<circle class="st3" cx="937" cy="320" r="194.5"/>
	<path class="st3" d="M937,131c25.5,0,50.3,5,73.6,14.9c22.5,9.5,42.7,23.1,60.1,40.5s31,37.6,40.5,60.1c9.8,23.3,14.8,48,14.8,73.6
		s-5,50.3-14.8,73.6c-9.5,22.5-23.2,42.7-40.5,60.1c-17.4,17.4-37.6,31-60.1,40.5c-23.3,9.8-48,14.8-73.6,14.8s-50.3-5-73.6-14.9
		c-22.5-9.5-42.7-23.1-60.1-40.5s-31-37.6-40.5-60.1c-9.8-23.3-14.8-48-14.8-73.6s5-50.3,14.8-73.6c9.5-22.5,23.2-42.7,40.5-60.1
		s37.6-31,60.1-40.5C886.7,136,911.5,131,937,131 M937,120c-110.5,0-200,89.5-200,200s89.5,200,200,200s200-89.5,200-200
		S1047.5,120,937,120L937,120z"/>
</g>
<path class="st4" d="M1119.5,239.5c0,0-178.7-50.7-245,22c-62,68,12,116,63,94c69.4-29.9,110.6-34.3,196-1
	C1146.5,287.5,1119.5,239.5,1119.5,239.5z"/>
<path class="st5" d="M908.1,272.9l88.9,10c0.2-0.1-28.7,53.9-58.4,42.9C915.4,317.2,908.1,272.9,908.1,272.9z"/>
<path class="st6" d="M918.5,388.5c0,0,103,42,193,22c-26.3,38.9-55,63-55,63S1007.5,502.5,918.5,388.5z"/>
<path class="st7" d="M1072.9,288.9c14.2,26.7,54.1,30,54.1,30s1.3-29.2-2.6-50.6C1124.6,268.2,1072.9,288.9,1072.9,288.9z"/>
<ellipse transform="matrix(9.640410e-02 -0.9953 0.9953 9.640410e-02 588.7031 1385.5533)" class="st8" cx="1057.5" cy="368.5" rx="10" ry="14"/>
<path class="st6" d="M945.7,421c0,0,7.8-5.5,11.7-18.2"/>
<path class="st6" d="M987.5,409.5c0,0-7,19-22,28"/>
<path class="st6" d="M1013.5,413.5c0,0-7,27-27,42"/>
<path class="st6" d="M1021.5,473.5c0,0,26-22,31-58"/>
<path class="st6" d="M1089.5,415.5c0,0-5,30-10,36"/>
<path class="st9" d="M819.7,191c2.2,5.9,5.8,3.5,6.7,0.2c3.5-10.6,29.1-29.6,57.1-29.6c22,0-21.5-101.5-60-84
	C780.8,96.9,808.9,162.1,819.7,191z"/>
<g>
	<ellipse class="st10" cx="1024" cy="625" rx="33.2" ry="79.5"/>
	<path d="M1024,551c6.7,0,13.6,7,19,19.3c6.4,14.4,9.9,33.9,9.9,54.7s-3.5,40.3-9.9,54.7c-5.4,12.3-12.4,19.3-19,19.3
		s-13.6-7-19-19.3c-6.4-14.4-9.9-33.9-9.9-54.7s3.5-40.3,9.9-54.7C1010.4,558,1017.3,551,1024,551 M1024,540
		c-20.7,0-37.5,38.1-37.5,85s16.8,85,37.5,85s37.5-38.1,37.5-85S1044.7,540,1024,540L1024,540z"/>
</g>
<polygon class="st11" points="895.5,574.8 870.8,648.9 856.3,677 880.8,662.6 879.9,687.8 890.2,667.1 908.2,688.1 903.3,655 
	914.7,581.8 "/>
<rect x="898.3" y="552.7" transform="matrix(0.3533 -0.9355 0.9355 0.3533 53.4763 1218.8329)" class="st12" width="20" height="36"/>
<path class="st13" d="M1057,349"/>
<path class="st13" d="M1057,397"/>
<path class="st2" d="M863,832.5c17.4,0,30.3-34.7,25.4-73.7c-4.3-34.5-17.1-54.6-33.2-48.1c-16.2,6.5-37.5,21.2-30.6,55.3
	C832.1,803.9,846.8,832.5,863,832.5z"/>
<path class="st14" d="M810.9,645.6c-95.8,7.4-134-136.5-139.8-209.1c0.2-18.5-6.4-36.7-19.2-50c-42.3-44-127.4-24.1-116.5,77
	c10.2,95.4,136.1,236.8,275.2,208.5C810.8,671.8,810.9,645.6,810.9,645.6z"/>
<path d="M535.5,429.8c0,0,61.5-47.3,135.9,10.2c0.5-0.3,6.9,44.9,6.9,44.9s-63.4-43.6-141-9C537.5,476.5,535.5,429.8,535.5,429.8z"
	/>
<path d="M549.7,515.7c0,0,70.1-46.1,135.4-4.7l7.1,26.1c0,0-63.6-9.5-116.4,24.6L549.7,515.7z"/>
<path d="M706.9,569.4c0,0-55.5-8.1-91.2,30.8l42.6,39.6c0,0,11-42.2,66.6-39.4L706.9,569.4z"/>
<path d="M741.5,621.6c-19.3,7.1-22,15.7-29.3,42c0.2,0.3,35.4,6.5,35.4,6.5s-0.7-17.2,14.8-33.6
	C762.8,636.9,741.5,621.6,741.5,621.6z"/>
</svg>
