<?xml version="1.0" encoding="utf-8"?>
<!-- Generator: Adobe Illustrator 24.1.2, SVG Export Plug-In . SVG Version: 6.00 Build 0)  -->
<svg version="1.1" id="Calque_1" xmlns="http://www.w3.org/2000/svg" xmlns:xlink="http://www.w3.org/1999/xlink" x="0px" y="0px"
	 viewBox="0 0 1920 1080" style="enable-background:new 0 0 1920 1080;" xml:space="preserve">
<style type="text/css">
	.st0{fill:#9B4724;stroke:#9B4724;stroke-width:11;stroke-miterlimit:10;}
	.st1{fill:#9B4724;stroke:#000000;stroke-width:6;stroke-miterlimit:10;}
	.st2{fill:#FFCA00;stroke:#000000;stroke-width:2;stroke-miterlimit:10;}
	.st3{fill:#9B4724;stroke:#000000;stroke-width:11;stroke-miterlimit:10;}
	.st4{fill:#9B4724;}
	.st5{stroke:#000000;stroke-miterlimit:10;}
	.st6{fill:#FFFFFF;stroke:#000000;stroke-miterlimit:10;}
	.st7{fill:#FFFFFF;stroke:#000000;stroke-width:5;stroke-miterlimit:10;}
	.st8{fill:#FFFFFF;stroke:#000000;stroke-width:8;stroke-miterlimit:10;}
	.st9{stroke:#000000;stroke-width:4.9998;stroke-miterlimit:9.9996;}
	.st10{fill:#9B4724;stroke:#000000;stroke-width:8;stroke-miterlimit:10;}
	.st11{fill:#B46F00;}
	.st12{fill:#9B4724;stroke:#000000;stroke-width:4;stroke-miterlimit:10;}
	.st13{fill:#9B4724;stroke:#9B4724;stroke-width:4.0001;stroke-miterlimit:10.0002;}
	.st14{fill:none;stroke:#000000;stroke-width:4;stroke-miterlimit:10;}
</style>
<path class="st0" d="M810.5,658.6c-79.6,53.8-184-52.4-225-112.6c-9-16.2-23.7-28.7-41.4-34c-58.5-17.3-122.6,42-63.2,124.6
	c56,77.8,235.4,138.5,342.3,45.1C823.4,681.4,810.5,658.6,810.5,658.6z"/>
<path class="st1" d="M1018.8,146.7c0,0,54.4-68.8,88.4-38.1c27.6,24.9-7.3,77.2-33,90.7C1058.3,169.7,1018.8,146.7,1018.8,146.7z"/>
<polygon class="st2" points="903,105.8 987.5,106.2 1004,26.8 966,62.8 949,20.8 927,59.8 889.5,20.3 "/>
<path class="st3" d="M1104.8,753.8c1.9-17.3-31.3-33.8-70.6-33.2c-34.8,0.5-56.1,11.1-51.4,27.9c4.7,16.8,17.1,39.6,51.7,36.4
	C1073,781.4,1103,769.9,1104.8,753.8z"/>
<g>
	<ellipse class="st4" cx="930" cy="624" rx="131.5" ry="141.5"/>
	<path class="st4" d="M930,488c33.5,0,65,14,88.8,39.5c24,25.7,37.2,60,37.2,96.5s-13.2,70.7-37.2,96.5C995,746,963.5,760,930,760
		s-65-14-88.8-39.5c-24-25.7-37.2-60-37.2-96.5s13.2-70.7,37.2-96.5C865,502,896.5,488,930,488 M930,477c-75.7,0-137,65.8-137,147
		s61.3,147,137,147s137-65.8,137-147S1005.7,477,930,477L930,477z"/>
</g>
<g>
	<circle class="st4" cx="937" cy="320" r="194.5"/>
	<path class="st4" d="M937,131c25.5,0,50.3,5,73.6,14.9c22.5,9.5,42.7,23.1,60.1,40.5s31,37.6,40.5,60.1c9.8,23.3,14.8,48,14.8,73.6
		s-5,50.3-14.8,73.6c-9.5,22.5-23.2,42.7-40.5,60.1c-17.4,17.4-37.6,31-60.1,40.5c-23.3,9.8-48,14.8-73.6,14.8s-50.3-5-73.6-14.9
		c-22.5-9.5-42.7-23.1-60.1-40.5s-31-37.6-40.5-60.1c-9.8-23.3-14.8-48-14.8-73.6s5-50.3,14.8-73.6c9.5-22.5,23.2-42.7,40.5-60.1
		s37.6-31,60.1-40.5C886.7,136,911.5,131,937,131 M937,120c-110.5,0-200,89.5-200,200s89.5,200,200,200s200-89.5,200-200
		S1047.5,120,937,120L937,120z"/>
</g>
<path class="st5" d="M1119.5,239.5c0,0-178.7-50.7-245,22c-62,68,12,116,63,94c69.4-29.9,110.6-34.3,196-1
	C1146.5,287.5,1119.5,239.5,1119.5,239.5z"/>
<path class="st6" d="M916.4,259.8l82.2,35.5c0.2-0.1-43.2,43.2-68.4,24C910.5,304.3,916.4,259.8,916.4,259.8z"/>
<path class="st7" d="M918.5,388.5c0,0,103,42,193,22c-26.3,38.9-55,63-55,63S1007.5,502.5,918.5,388.5z"/>
<path class="st8" d="M1073.2,295.9c20.2,22.5,59.7,16,59.7,16s-5.8-28.6-14.7-48.5C1118.4,263.3,1073.2,295.9,1073.2,295.9z"/>
<ellipse transform="matrix(9.640410e-02 -0.9953 0.9953 9.640410e-02 588.7031 1385.5533)" class="st9" cx="1057.5" cy="368.5" rx="10" ry="14"/>
<path class="st7" d="M945.7,421c0,0,7.8-5.5,11.7-18.2"/>
<path class="st7" d="M987.5,409.5c0,0-7,19-22,28"/>
<path class="st7" d="M1013.5,413.5c0,0-7,27-27,42"/>
<path class="st7" d="M1021.5,473.5c0,0,26-22,31-58"/>
<path class="st7" d="M1089.5,415.5c0,0-5,30-10,36"/>
<path class="st10" d="M805.4,223.8c4,4.9,6.6,1.6,6.4-1.9c0-11.2,18.5-37.2,45-45.9c20.9-6.8-52-89.8-83.1-61.2
	C739.2,146.5,786.2,199.7,805.4,223.8z"/>
<g>
	<ellipse class="st11" cx="994.6" cy="625" rx="59.3" ry="79.5"/>
	<path d="M994.6,551c11.9,0,24.3,7,34,19.3c11.4,14.4,17.6,33.9,17.6,54.7s-6.3,40.3-17.6,54.7c-9.7,12.3-22.1,19.3-34,19.3
		s-24.3-7-34-19.3c-11.4-14.4-17.6-33.9-17.6-54.7s6.3-40.3,17.6-54.7C970.2,558,982.6,551,994.6,551 M994.6,540
		c-37,0-66.9,38.1-66.9,85s30,85,66.9,85c37,0,66.9-38.1,66.9-85S1031.5,540,994.6,540L994.6,540z"/>
</g>
<polygon class="st12" points="899.7,587.4 828.9,620.4 798.5,629.2 825.8,637.1 806.9,653.7 829,647 826.1,674.5 846.8,648.1 
	907.7,606.2 "/>
<rect x="901.4" y="575.9" transform="matrix(0.9224 -0.3862 0.3862 0.9224 -158.6659 398.0668)" class="st13" width="20" height="36"/>
<path class="st14" d="M1057,349"/>
<path class="st14" d="M1057,397"/>
<path class="st3" d="M770.2,807.5c9.7,14.4,45.7,5.8,75.4-20c26.3-22.8,35.8-44.6,21.4-54.4c-14.4-9.8-38.5-19.3-63,5.4
	C776.8,766,761.2,794.1,770.2,807.5z"/>
<path d="M464.4,607.3c0,0,30.1-71.5,123.2-58.4c0.2-0.5,28.2,35.6,28.2,35.6s-76.7-6.5-127,61.9
	C489.2,646.9,464.4,607.3,464.4,607.3z"/>
<path d="M519.2,675c0,0,38.1-74.7,115.4-71l19,19.2c0,0-60,23.2-89,78.9L519.2,675z"/>
<path d="M682.4,643.8c0,0-52.2,20.4-64.1,71.9L675,729c0,0-11.3-42.1,38.4-67.2L682.4,643.8z"/>
<path d="M738.3,672c-13.3,15.7-11.3,24.5-4.6,51c0.3,0.2,34-11.8,34-11.8s-9.1-14.6-3.7-36.5C764.4,674.9,738.3,672,738.3,672z"/>
</svg>
