<?xml version="1.0" encoding="utf-8"?>
<!-- Generator: Adobe Illustrator 24.1.2, SVG Export Plug-In . SVG Version: 6.00 Build 0)  -->
<svg version="1.1" id="Calque_1" xmlns="http://www.w3.org/2000/svg" xmlns:xlink="http://www.w3.org/1999/xlink" x="0px" y="0px"
	 viewBox="0 0 1920 1080" style="enable-background:new 0 0 1920 1080;" xml:space="preserve">
<style type="text/css">
	.st0{fill:#9B4724;stroke:#000000;stroke-width:6;stroke-miterlimit:10;}
	.st1{fill:#FFCA00;stroke:#000000;stroke-width:2;stroke-miterlimit:10;}
	.st2{fill:#9B4724;stroke:#000000;stroke-width:11;stroke-miterlimit:10;}
	.st3{fill:#9B4724;}
	.st4{stroke:#000000;stroke-miterlimit:10;}
	.st5{fill:#FFFFFF;stroke:#000000;stroke-miterlimit:10;}
	.st6{fill:#FFFFFF;stroke:#000000;stroke-width:5;stroke-miterlimit:10;}
	.st7{fill:#FFFFFF;stroke:#000000;stroke-width:8;stroke-miterlimit:10;}
	.st8{stroke:#000000;stroke-width:4.9998;stroke-miterlimit:9.9996;}
	.st9{fill:#9B4724;stroke:#000000;stroke-width:8;stroke-miterlimit:10;}
	.st10{fill:#B46F00;}
	.st11{fill:#9B4724;stroke:#000000;stroke-width:4;stroke-miterlimit:10;}
	.st12{fill:#9B4724;stroke:#9B4724;stroke-width:4.0001;stroke-miterlimit:10.0002;}
	.st13{fill:none;stroke:#000000;stroke-width:4;stroke-miterlimit:10;}
	.st14{fill:#9B4724;stroke:#9B4724;stroke-width:11;stroke-miterlimit:10;}
</style>
<path class="st0" d="M1005,143.3c0,0,41-77.5,80-53.5c31.7,19.5,6.9,77.3-16,95.2C1048,158.7,1005,143.3,1005,143.3z"/>
<polygon class="st1" points="903,126 987.5,126.4 1004,47 966,83 949,41 927,80 889.5,40.5 "/>
<path class="st2" d="M1065.3,773.4c3.3-17.1-28.4-36.2-67.6-38.8c-34.7-2.3-56.8,6.5-53.5,23.6s13.8,40.8,48.6,40.5
	C1031.5,798.4,1062.3,789.3,1065.3,773.4z"/>
<g>
	<ellipse class="st3" cx="930" cy="624" rx="131.5" ry="141.5"/>
	<path class="st3" d="M930,488c33.5,0,65,14,88.8,39.5c24,25.7,37.2,60,37.2,96.5s-13.2,70.7-37.2,96.5C995,746,963.5,760,930,760
		s-65-14-88.8-39.5c-24-25.7-37.2-60-37.2-96.5s13.2-70.7,37.2-96.5C865,502,896.5,488,930,488 M930,477c-75.7,0-137,65.8-137,147
		s61.3,147,137,147s137-65.8,137-147S1005.7,477,930,477L930,477z"/>
</g>
<g>
	<circle class="st3" cx="937" cy="320" r="194.5"/>
	<path class="st3" d="M937,131c25.5,0,50.3,5,73.6,14.9c22.5,9.5,42.7,23.1,60.1,40.5s31,37.6,40.5,60.1c9.8,23.3,14.8,48,14.8,73.6
		s-5,50.3-14.8,73.6c-9.5,22.5-23.2,42.7-40.5,60.1c-17.4,17.4-37.6,31-60.1,40.5c-23.3,9.8-48,14.8-73.6,14.8s-50.3-5-73.6-14.9
		c-22.5-9.5-42.7-23.1-60.1-40.5s-31-37.6-40.5-60.1c-9.8-23.3-14.8-48-14.8-73.6s5-50.3,14.8-73.6c9.5-22.5,23.2-42.7,40.5-60.1
		s37.6-31,60.1-40.5C886.7,136,911.5,131,937,131 M937,120c-110.5,0-200,89.5-200,200s89.5,200,200,200s200-89.5,200-200
		S1047.5,120,937,120L937,120z"/>
</g>
<path class="st4" d="M1119.5,239.5c0,0-178.7-50.7-245,22c-62,68,12,116,63,94c69.4-29.9,110.6-34.3,196-1
	C1146.5,287.5,1119.5,239.5,1119.5,239.5z"/>
<path class="st5" d="M913.5,263.5l85,28c0.2-0.1-39.2,46.9-66,30C911.5,308.3,913.5,263.5,913.5,263.5z"/>
<path class="st6" d="M918.5,388.5c0,0,103,42,193,22c-26.3,38.9-55,63-55,63S1007.5,502.5,918.5,388.5z"/>
<path class="st7" d="M1076,292c17,25,57,24,57,24s-1.8-29.2-8-50C1125.2,265.8,1076,292,1076,292z"/>
<ellipse transform="matrix(9.640410e-02 -0.9953 0.9953 9.640410e-02 588.7031 1385.5533)" class="st8" cx="1057.5" cy="368.5" rx="10" ry="14"/>
<path class="st6" d="M945.7,421c0,0,7.8-5.5,11.7-18.2"/>
<path class="st6" d="M987.5,409.5c0,0-7,19-22,28"/>
<path class="st6" d="M1013.5,413.5c0,0-7,27-27,42"/>
<path class="st6" d="M1021.5,473.5c0,0,26-22,31-58"/>
<path class="st6" d="M1089.5,415.5c0,0-5,30-10,36"/>
<path class="st9" d="M819.7,191c2.2,5.9,5.8,3.5,6.7,0.2c3.5-10.6,29.1-29.6,57.1-29.6c22,0-21.5-101.5-60-84
	C780.8,96.9,808.9,162.1,819.7,191z"/>
<g>
	<ellipse class="st10" cx="1024" cy="625" rx="33.2" ry="79.5"/>
	<path d="M1024,551c6.7,0,13.6,7,19,19.3c6.4,14.4,9.9,33.9,9.9,54.7s-3.5,40.3-9.9,54.7c-5.4,12.3-12.4,19.3-19,19.3
		s-13.6-7-19-19.3c-6.4-14.4-9.9-33.9-9.9-54.7s3.5-40.3,9.9-54.7C1010.4,558,1017.3,551,1024,551 M1024,540
		c-20.7,0-37.5,38.1-37.5,85s16.8,85,37.5,85s37.5-38.1,37.5-85S1044.7,540,1024,540L1024,540z"/>
</g>
<polygon class="st11" points="890.8,617.8 955,662.3 977.9,684.1 970.9,656.5 994.9,664.4 977.9,648.7 1003.1,637.4 969.9,632.8 
	902.9,601.4 "/>
<rect x="872.5" y="594.4" transform="matrix(0.6009 -0.7994 0.7994 0.6009 -127.7319 953.0323)" class="st12" width="36" height="20"/>
<path class="st13" d="M1057,349"/>
<path class="st13" d="M1057,397"/>
<path class="st2" d="M898.8,804.4c13.1-11.4,0-46.1-29.2-72.3c-25.9-23.2-48.7-29.9-56.6-14.5s-14.4,40.6,13.2,61.9
	C856.8,803.1,886.6,815,898.8,804.4z"/>
<path class="st14" d="M796.9,651.6c-84.7,45.5-177.8-70.7-212.4-134.7c-7.3-17-20.6-31-37.8-38c-56.4-23.1-126.3,29.4-75.5,117.6
	c47.9,83.1,220.2,161.6,335.9,79.5C807.4,675.7,796.9,651.6,796.9,651.6z"/>
<path d="M457.8,565.6c0,0,37.2-68.1,128.5-45.6c0.3-0.5,24.4,38.3,24.4,38.3S535,544,478,607C478.5,607.5,457.8,565.6,457.8,565.6z"
	/>
<path d="M505.5,638.5c0,0,45.5-70.5,122-59l17,21c0,0-62,17-96.5,69.5L505.5,638.5z"/>
<path d="M671,624c0,0-54,15-71,65l55,19c0,0-7-43,45-63L671,624z"/>
<path d="M723.8,657.7C709,672,710,681,714,708c0.3,0.2,35-8.3,35-8.3s-7.6-15.5,0-36.7C749.4,663.2,723.8,657.7,723.8,657.7z"/>
</svg>
