<?xml version="1.0" encoding="utf-8"?>
<!-- Generator: Adobe Illustrator 24.1.2, SVG Export Plug-In . SVG Version: 6.00 Build 0)  -->
<svg version="1.1" id="Calque_1" xmlns="http://www.w3.org/2000/svg" xmlns:xlink="http://www.w3.org/1999/xlink" x="0px" y="0px"
	 viewBox="0 0 1920 1080" style="enable-background:new 0 0 1920 1080;" xml:space="preserve">
<style type="text/css">
	.st0{fill:#9B4724;stroke:#000000;stroke-width:11;stroke-miterlimit:10;}
	.st1{fill:#9B4724;stroke:#000000;stroke-width:8;stroke-miterlimit:10;}
	.st2{fill:#FFCA00;stroke:#000000;stroke-width:2;stroke-miterlimit:10;}
	.st3{fill:#9B4724;}
	.st4{stroke:#000000;stroke-miterlimit:10;}
	.st5{fill:#FFFFFF;stroke:#000000;stroke-miterlimit:10;}
	.st6{fill:#FFFFFF;stroke:#000000;stroke-width:5;stroke-miterlimit:10;}
	.st7{fill:#FFFFFF;stroke:#000000;stroke-width:8;stroke-miterlimit:10;}
	.st8{stroke:#000000;stroke-width:4.9998;stroke-miterlimit:9.9996;}
	.st9{fill:#B46F00;}
	.st10{fill:#9B4724;stroke:#000000;stroke-width:6;stroke-miterlimit:10;}
	.st11{fill:#9B4724;stroke:#9B4724;stroke-width:4.0001;stroke-miterlimit:10.0002;}
	.st12{fill:none;stroke:#000000;stroke-width:4;stroke-miterlimit:10;}
</style>
<path class="st0" d="M801,651.6c-84.7,45.5-177.8-70.7-212.4-134.7c-7.3-17-20.6-31-37.8-38c-56.4-23.1-126.3,29.4-75.5,117.6
	c47.9,83.1,220.2,161.6,335.9,79.5C811.5,675.7,801,651.6,801,651.6z"/>
<path d="M461.8,565.6c0,0,37.2-68.1,128.5-45.6c0.3-0.5,24.4,38.3,24.4,38.3S539.1,544,482.1,607
	C482.6,607.5,461.8,565.6,461.8,565.6z"/>
<path d="M509.6,638.5c0,0,45.5-70.5,122-59l17,21c0,0-62,17-96.5,69.5L509.6,638.5z"/>
<path d="M675.1,624c0,0-54,15-71,65l55,19c0,0-7-43,45-63L675.1,624z"/>
<path d="M727.8,657.7c-14.8,14.3-13.8,23.3-9.8,50.3c0.3,0.2,35-8.3,35-8.3s-7.6-15.5,0-36.7C753.4,663.2,727.8,657.7,727.8,657.7z"
	/>
<path class="st1" d="M929.8,138.2c0,0,23.7-84.5,66.9-69.3c35.1,12.3,23.1,74,4.5,96.4C975.2,144.2,929.8,138.2,929.8,138.2z"/>
<polygon class="st2" points="831.4,141.8 914,124.4 913.3,43.2 883.8,86.5 858.3,49 845.1,91.8 800.1,61.1 "/>
<path class="st0" d="M876.8,838.4c17.2,2.8,35.5-29.3,37.1-68.6c1.4-34.8-7.9-56.6-24.9-52.9s-40.5,14.8-39.3,49.6
	C851,805.2,860.8,835.8,876.8,838.4z"/>
<g>
	<ellipse class="st3" cx="930" cy="624" rx="131.5" ry="141.5"/>
	<path class="st3" d="M930,488c33.5,0,65,14,88.8,39.5c24,25.7,37.2,60,37.2,96.5s-13.2,70.7-37.2,96.5C995,746,963.5,760,930,760
		s-65-14-88.8-39.5c-24-25.7-37.2-60-37.2-96.5s13.2-70.7,37.2-96.5C865,502,896.5,488,930,488 M930,477c-75.7,0-137,65.8-137,147
		s61.3,147,137,147s137-65.8,137-147S1005.7,477,930,477L930,477z"/>
</g>
<g>
	<circle class="st3" cx="905.7" cy="324.2" r="194.5"/>
	<path class="st3" d="M865.7,139.5c24.9-5.4,50.2-5.8,75-1.1c24,4.5,46.7,13.6,67.3,26.9c20.6,13.3,38.2,30.2,52.3,50.1
		c14.6,20.7,24.7,43.8,30.1,68.7c5.4,24.9,5.8,50.2,1.1,75c-4.5,24-13.6,46.7-26.9,67.3c-13.3,20.6-30.2,38.2-50.1,52.3
		c-20.7,14.6-43.8,24.7-68.7,30.1s-50.2,5.8-75,1.1c-24-4.5-46.7-13.6-67.3-26.9c-20.6-13.3-38.2-30.2-52.3-50.1
		c-14.6-20.7-24.7-43.8-30.1-68.7c-5.4-24.9-5.8-50.2-1.1-75c4.5-24,13.6-46.7,26.9-67.3c13.3-20.6,30.2-38.2,50.1-52.3
		C817.6,155.1,840.7,144.9,865.7,139.5 M863.3,128.8c-108,23.4-176.5,129.9-153.1,237.8s129.9,176.5,237.8,153.1
		c108-23.4,176.5-129.9,153.1-237.8S971.3,105.4,863.3,128.8L863.3,128.8z"/>
</g>
<path class="st4" d="M1067,206.9c0,0-185.4-11.7-234.8,73.4c-46.2,79.6,36.3,110.8,81.5,78.5c61.5-44,100.8-57,191.3-42.5
	C1103.6,248.1,1067,206.9,1067,206.9z"/>
<path class="st5" d="M870.8,274l89,9.4c0.2-0.1-28.3,54.1-58.1,43.3C878.3,318.2,870.8,274,870.8,274z"/>
<path class="st6" d="M902.1,395.1c0,0,109.6,19.2,193.3-19.4c-17.5,43.6-40.4,73.2-40.4,73.2S1013.2,487.7,902.1,395.1z"/>
<path class="st7" d="M1035.6,267.4c21.9,20.8,60.8,11.4,60.8,11.4s-8-28.1-18.4-47.2C1078.1,231.4,1035.6,267.4,1035.6,267.4z"/>
<ellipse transform="matrix(0.9932 -0.1166 0.1166 0.9932 -33.3112 122.8966)" class="st8" cx="1033.7" cy="346.1" rx="14" ry="10"/>
<path class="st6" d="M935.5,421.1c0,0,6.5-7,7.6-20.3"/>
<path class="st6" d="M974,401c0,0-2.8,20.1-15.6,32"/>
<path class="st6" d="M1000.3,399.4c0,0-1.1,27.9-17.5,46.8"/>
<path class="st6" d="M1020.8,456.3c0,0,20.8-27,18-63.3"/>
<path class="st6" d="M1075,385.3c0,0,1.5,30.4-2.1,37.3"/>
<path class="st1" d="M763.7,223c3.4,5.3,6.4,2.2,6.6-1.3c1.2-11.1,22.2-35.1,49.5-41c21.5-4.7-42.5-94.6-76.4-69.4
	C705.8,139.3,747,197,763.7,223z"/>
<g>
	<ellipse class="st9" cx="992.5" cy="624" rx="46.3" ry="86.6"/>
	<path d="M992.5,543.4c9.3,0,19,7.7,26.5,21c8.9,15.7,13.8,36.9,13.8,59.6s-4.9,43.8-13.8,59.6c-7.5,13.4-17.2,21-26.5,21
		c-9.3,0-19-7.7-26.5-21c-8.9-15.7-13.8-36.9-13.8-59.6s4.9-43.8,13.8-59.6C973.5,551.1,983.2,543.4,992.5,543.4 M992.5,531.4
		c-28.9,0-52.3,41.4-52.3,92.6s23.4,92.6,52.3,92.6s52.3-41.4,52.3-92.6S1021.4,531.4,992.5,531.4L992.5,531.4z"/>
</g>
<polygon class="st10" points="838.9,554.2 778.4,504.8 757.3,481.2 762.1,509.3 738.9,499.5 754.5,516.5 728.5,525.8 761.2,533 
	825.5,569.6 "/>
<rect x="820.1" y="557.7" transform="matrix(0.6631 -0.7486 0.7486 0.6631 -142.535 818.6431)" class="st11" width="36" height="20"/>
<path class="st12" d="M1057,349"/>
<path class="st12" d="M1057,397"/>
<path class="st0" d="M776.2,809.1c12.4,12.2,45.9-3.4,70-34.5c21.3-27.5,26.3-50.8,10.2-57.6s-41.6-11.3-60.7,17.7
	C774.4,767.1,764.7,797.7,776.2,809.1z"/>
</svg>
