<?xml version="1.0" encoding="utf-8"?>
<!-- Generator: Adobe Illustrator 24.1.2, SVG Export Plug-In . SVG Version: 6.00 Build 0)  -->
<svg version="1.1" id="Calque_1" xmlns="http://www.w3.org/2000/svg" xmlns:xlink="http://www.w3.org/1999/xlink" x="0px" y="0px"
	 viewBox="0 0 1920 1080" style="enable-background:new 0 0 1920 1080;" xml:space="preserve">
<style type="text/css">
	.st0{fill:#9B4724;stroke:#9B4724;stroke-width:11;stroke-miterlimit:10;}
	.st1{fill:#9B4724;stroke:#000000;stroke-width:6;stroke-miterlimit:10;}
	.st2{fill:#FFCA00;stroke:#000000;stroke-width:2;stroke-miterlimit:10;}
	.st3{fill:#9B4724;stroke:#000000;stroke-width:11;stroke-miterlimit:10;}
	.st4{fill:#9B4724;}
	.st5{stroke:#000000;stroke-miterlimit:10;}
	.st6{fill:#FFFFFF;stroke:#000000;stroke-miterlimit:10;}
	.st7{fill:#FFFFFF;stroke:#000000;stroke-width:5;stroke-miterlimit:10;}
	.st8{fill:#FFFFFF;stroke:#000000;stroke-width:8;stroke-miterlimit:10;}
	.st9{stroke:#000000;stroke-width:4.9998;stroke-miterlimit:9.9996;}
	.st10{fill:#9B4724;stroke:#000000;stroke-width:8;stroke-miterlimit:10;}
	.st11{fill:#B46F00;}
	.st12{fill:#9B4724;stroke:#000000;stroke-width:4;stroke-miterlimit:10;}
	.st13{fill:#9B4724;stroke:#9B4724;stroke-width:4.0001;stroke-miterlimit:10.0002;}
	.st14{fill:none;stroke:#000000;stroke-width:4;stroke-miterlimit:10;}
</style>
<path class="st0" d="M834.5,672.5c-94.9-14.9-98.9-163.8-87.8-235.7c4.5-18,2.3-37.1-7.1-53.1c-31-52.6-118.4-52.9-131.2,48.1
	c-12.1,95.1,77.7,261.8,219.6,266.3C828.4,698,834.5,672.5,834.5,672.5z"/>
<path class="st1" d="M991.1,140.6c0,0,30.8-82.2,72.5-63.3c33.9,15.3,16.7,75.7-3.7,96.5C1035.8,150.4,991.1,140.6,991.1,140.6z"/>
<polygon class="st2" points="901.9,92.6 986.4,93.1 1002.9,13.6 964.9,49.6 947.9,7.6 925.9,46.6 888.4,7.1 "/>
<path class="st3" d="M1108.7,698.7c-6.8-16-43.8-14.2-77.8,5.6c-30.1,17.5-43.4,37.2-31.1,49.5s34.3,26.1,62.9,6.4
	C1094.5,738.3,1115,713.5,1108.7,698.7z"/>
<g>
	<ellipse class="st4" cx="930" cy="624" rx="131.5" ry="141.5"/>
	<path class="st4" d="M930,488c33.5,0,65,14,88.8,39.5c24,25.7,37.2,60,37.2,96.5s-13.2,70.7-37.2,96.5C995,746,963.5,760,930,760
		s-65-14-88.8-39.5c-24-25.7-37.2-60-37.2-96.5s13.2-70.7,37.2-96.5C865,502,896.5,488,930,488 M930,477c-75.7,0-137,65.8-137,147
		s61.3,147,137,147s137-65.8,137-147S1005.7,477,930,477L930,477z"/>
</g>
<g>
	<circle class="st4" cx="937" cy="320" r="194.5"/>
	<path class="st4" d="M937,131c25.5,0,50.3,5,73.6,14.9c22.5,9.5,42.7,23.1,60.1,40.5s31,37.6,40.5,60.1c9.8,23.3,14.8,48,14.8,73.6
		s-5,50.3-14.8,73.6c-9.5,22.5-23.2,42.7-40.5,60.1c-17.4,17.4-37.6,31-60.1,40.5c-23.3,9.8-48,14.8-73.6,14.8s-50.3-5-73.6-14.9
		c-22.5-9.5-42.7-23.1-60.1-40.5s-31-37.6-40.5-60.1c-9.8-23.3-14.8-48-14.8-73.6s5-50.3,14.8-73.6c9.5-22.5,23.2-42.7,40.5-60.1
		s37.6-31,60.1-40.5C886.7,136,911.5,131,937,131 M937,120c-110.5,0-200,89.5-200,200s89.5,200,200,200s200-89.5,200-200
		S1047.5,120,937,120L937,120z"/>
</g>
<path class="st5" d="M1119.5,239.5c0,0-178.7-50.7-245,22c-62,68,12,116,63,94c69.4-29.9,110.6-34.3,196-1
	C1146.5,287.5,1119.5,239.5,1119.5,239.5z"/>
<path class="st6" d="M916.4,259.8l82.2,35.5c0.2-0.1-43.2,43.2-68.4,24C910.5,304.3,916.4,259.8,916.4,259.8z"/>
<path class="st7" d="M918.5,388.5c0,0,103,42,193,22c-26.3,38.9-55,63-55,63S1007.5,502.5,918.5,388.5z"/>
<path class="st8" d="M1073.2,295.9c20.2,22.5,59.7,16,59.7,16s-5.8-28.6-14.7-48.5C1118.4,263.3,1073.2,295.9,1073.2,295.9z"/>
<ellipse transform="matrix(9.640410e-02 -0.9953 0.9953 9.640410e-02 588.7031 1385.5533)" class="st9" cx="1057.5" cy="368.5" rx="10" ry="14"/>
<path class="st7" d="M945.7,421c0,0,7.8-5.5,11.7-18.2"/>
<path class="st7" d="M987.5,409.5c0,0-7,19-22,28"/>
<path class="st7" d="M1013.5,413.5c0,0-7,27-27,42"/>
<path class="st7" d="M1021.5,473.5c0,0,26-22,31-58"/>
<path class="st7" d="M1089.5,415.5c0,0-5,30-10,36"/>
<path class="st10" d="M823.4,190c1.9,6.1,5.6,3.9,6.7,0.6c4.1-10.4,30.8-27.8,58.7-26.1c22,1.3-15.4-102.6-54.9-87.4
	C790.2,93.8,814.3,160.6,823.4,190z"/>
<g>
	<ellipse class="st11" cx="994.6" cy="625" rx="59.3" ry="79.5"/>
	<path d="M994.6,551c11.9,0,24.3,7,34,19.3c11.4,14.4,17.6,33.9,17.6,54.7s-6.3,40.3-17.6,54.7c-9.7,12.3-22.1,19.3-34,19.3
		s-24.3-7-34-19.3c-11.4-14.4-17.6-33.9-17.6-54.7s6.3-40.3,17.6-54.7C970.2,558,982.6,551,994.6,551 M994.6,540
		c-37,0-66.9,38.1-66.9,85s30,85,66.9,85c37,0,66.9-38.1,66.9-85S1031.5,540,994.6,540L994.6,540z"/>
</g>
<polygon class="st12" points="896.2,576.6 891.1,498.7 894,467.2 876.7,489.8 868,466.1 866.3,489.2 841.7,476.5 858.8,505.3 
	875.8,577.3 "/>
<rect x="867.9" y="575.2" transform="matrix(0.9997 -2.568291e-02 2.568291e-02 0.9997 -14.7378 22.9451)" class="st13" width="36" height="20"/>
<path class="st14" d="M1057,349"/>
<path class="st14" d="M1057,397"/>
<path class="st3" d="M928.4,794.9c10.2-14.1-10.3-44.9-44.6-63.9c-30.4-16.9-54.2-18.3-58.4-1.4s-4.9,42.8,26.7,57.3
	C887.1,803,918.9,808,928.4,794.9z"/>
<path d="M616.3,399c0,0,70.8-31.8,129.9,41.3c0.5-0.2-3.7,45.3-3.7,45.3s-51.6-57.1-135.1-41.3C607.5,444.9,616.3,399,616.3,399z"/>
<path d="M610.3,485.9c0,0,78.9-28.7,132.9,26.7l0.9,27c0,0-59.7-23.9-118.9-2.9L610.3,485.9z"/>
<path d="M750.9,574.4c0,0-52.1-20.7-95.8,8.9l32.3,48.4c0,0,20.4-38.5,73.9-23L750.9,574.4z"/>
<path d="M772.6,633.2c-20.4,2.4-25,10.2-38.2,34.1c0.1,0.4,32.9,14.5,32.9,14.5s3.3-16.9,22.2-29.2
	C789.7,653,772.6,633.2,772.6,633.2z"/>
</svg>
