<svg xmlns="http://www.w3.org/2000/svg" viewBox="0 0 1923 1082"><defs><style>.cls-1{fill:#912600;}.cls-2,.cls-5{fill:#ffa233;}.cls-3{fill:#ff371a;}.cls-3,.cls-4,.cls-5{stroke:#000;stroke-miterlimit:10;}.cls-3,.cls-5{stroke-width:2px;}.cls-4{fill:#d54b00;stroke-width:3px;}</style></defs><g id="Fond"><rect class="cls-1" x="1.5" y="1.5" width="1920" height="1080"/></g><g id="_1er_plan" data-name="1er plan"><rect x="277" y="709" width="150" height="159" rx="12"/><path d="M350.5,885.52S457,890,471,848V815l-30-1s5,33-90,34Z" transform="translate(1 1)"/><rect x="272" y="879" width="172" height="82" rx="12"/><path d="M353.5,885.59S247,890.09,233,848.09v-33l30-1s-5,33,90,34Z" transform="translate(1 1)"/><rect class="cls-2" x="283" y="714" width="146" height="159" rx="12"/><rect class="cls-3" x="289" y="720" width="141" height="159" rx="12"/><rect class="cls-4" x="1.5" y="960.5" width="1920" height="120" rx="12"/><rect class="cls-4" x="1.5" y="1.5" width="120" height="959" rx="12"/><rect class="cls-5" x="277.5" y="878.5" width="172" height="82" rx="12"/><polygon class="cls-3" points="290 836.96 305.8 862 447 862 429.23 836.99 290 836.96"/><polygon class="cls-2" points="374 886 355 887 343 863 374 863 374 886"/><rect class="cls-3" x="307" y="862" width="116" height="21"/><polygon class="cls-3" points="289 837.25 306 863 306 883 289 856 289 837.25"/><path class="cls-5" d="M360.5,886.5S254,891,240,849V816l30-1s-5,33,90,34Z" transform="translate(1 1)"/><path class="cls-5" d="M356.5,886.59s106.5,4.5,120.5-37.5v-33l-30-1s5,33-90,34Z" transform="translate(1 1)"/><polygon class="cls-2" points="353 851 361 851 361 887 351 887 353 851"/><rect class="cls-4" x="961" y="720" width="600" height="240" rx="12"/></g></svg>