<?xml version="1.0" encoding="utf-8"?>
<!-- Generator: Adobe Illustrator 24.1.2, SVG Export Plug-In . SVG Version: 6.00 Build 0)  -->
<svg version="1.1" id="Calque_1" xmlns="http://www.w3.org/2000/svg" xmlns:xlink="http://www.w3.org/1999/xlink" x="0px" y="0px"
	 viewBox="0 0 1920 1080" style="enable-background:new 0 0 1920 1080;" xml:space="preserve">
<style type="text/css">
	.st0{fill:#353535;}
	.st1{fill:#FFA233;stroke:#000000;stroke-width:3;stroke-miterlimit:10;}
</style>
<g id="Fond">
	<rect x="1" y="-1" class="st0" width="1920" height="1080"/>
</g>
<g id="_x31_erplan_1_">
	<path class="st1" d="M1907.5,959.5H11.5c-6.6,0-12,5.4-12,12v96c0,6.6,5.4,12,12,12h1896c6.6,0,12-5.4,12-12v-96
		C1919.5,964.9,1914.1,959.5,1907.5,959.5z"/>
	<path class="st1" d="M709.5,718.5h-220c-6.6,0-12,5.4-12,12v97c0,6.6,5.4,12,12,12h220c6.6,0,12-5.4,12-12v-97
		C721.5,723.9,716.1,718.5,709.5,718.5z"/>
	<path class="st1" d="M251.5,476.5h214c6.6,0,12,5.4,12,12v99c0,6.6-5.4,12-12,12h-214c-6.6,0-12-5.4-12-12v-99
		C239.5,481.9,244.9,476.5,251.5,476.5z"/>
	<path class="st1" d="M709.5,239.5h-218c-6.6,0-12,5.4-12,12v92c0,6.6,5.4,12,12,12h218c6.6,0,12-5.4,12-12v-92
		C721.5,244.9,716.1,239.5,709.5,239.5z"/>
	<path class="st1" d="M1428.5,721.5h-217c-6.6,0-12,5.4-12,12v94c0,6.6,5.4,12,12,12h217c6.6,0,12-5.4,12-12v-94
		C1440.5,726.9,1435.1,721.5,1428.5,721.5z"/>
	<path class="st1" d="M1667.5,482.5h-215c-6.6,0-12,5.4-12,12v93c0,6.6,5.4,12,12,12h215c6.6,0,12-5.4,12-12v-93
		C1679.5,487.9,1674.1,482.5,1667.5,482.5z"/>
	<path class="st1" d="M1211.5,239.5h216c6.6,0,12,5.4,12,12v96c0,6.6-5.4,12-12,12h-216c-6.6,0-12-5.4-12-12v-96
		C1199.5,244.9,1204.9,239.5,1211.5,239.5z"/>
	<path class="st1" d="M1907.5-0.5h-94c-6.6,0-12,5.4-12,12v698c0,6.6,5.4,12,12,12h94c6.6,0,12-5.4,12-12v-698
		C1919.5,4.9,1914.1-0.5,1907.5-0.5z"/>
	<path class="st1" d="M733.5,357.5h95c6.6,0,12-5.4,12-12v-95c0-6.6-5.4-12-12-12h-95c-6.6,0-12,5.4-12,12v95
		C721.5,352.1,726.9,357.5,733.5,357.5z"/>
	<path class="st1" d="M1187.5,359.5h-95c-6.6,0-12-5.4-12-12v-95c0-6.6,5.4-12,12-12h95c6.6,0,12,5.4,12,12v95
		C1199.5,354.1,1194.1,359.5,1187.5,359.5z"/>
	<path class="st1" d="M1788.5,119.5H11.5c-6.6,0-12-5.4-12-12v-96c0-6.6,5.4-12,12-12h1777c6.6,0,12,5.4,12,12v96
		C1800.5,114.1,1795.1,119.5,1788.5,119.5z"/>
</g>
</svg>
