<svg xmlns="http://www.w3.org/2000/svg" xmlns:xlink="http://www.w3.org/1999/xlink" viewBox="0 0 1923 1082"><defs><style>.cls-1{fill:none;}.cls-1,.cls-4{stroke:#000;stroke-miterlimit:10;}.cls-2{fill:url(#Dégradé_sans_nom_4);}.cls-3{fill:#fff;}.cls-4{fill:#ffa233;stroke-width:3px;}.cls-5{fill:#912600;}.cls-6{fill:#006837;}</style><linearGradient id="Dégradé_sans_nom_4" x1="419" y1="539" x2="1499" y2="539" gradientTransform="translate(422 1500) rotate(-90)" gradientUnits="userSpaceOnUse"><stop offset="0" stop-color="#0059ff"/><stop offset="0.05" stop-color="#0f64ff"/><stop offset="0.17" stop-color="#3380ff"/><stop offset="0.31" stop-color="#5097ff"/><stop offset="0.45" stop-color="#67a9ff"/><stop offset="0.6" stop-color="#77b5ff"/><stop offset="0.77" stop-color="#81bdff"/><stop offset="1" stop-color="#84bfff"/></linearGradient></defs><g id="Calque_2" data-name="Calque 2"><rect class="cls-1" x="1.5" y="0.5" width="1920" height="1080"/><line class="cls-1" x1="1.5" y1="960.5" x2="1921.5" y2="960.5"/><line class="cls-1" x1="1.5" y1="840.5" x2="1921.5" y2="840.5"/><line class="cls-1" x1="1.5" y1="720.5" x2="1921.5" y2="720.5"/><line class="cls-1" x1="1.5" y1="600.5" x2="1921.5" y2="600.5"/><line class="cls-1" x1="1.5" y1="480.5" x2="1921.5" y2="480.5"/><line class="cls-1" x1="1.5" y1="360.5" x2="1921.5" y2="360.5"/><line class="cls-1" x1="1.5" y1="240.5" x2="1921.5" y2="240.5"/><line class="cls-1" x1="1.5" y1="120.5" x2="1921.5" y2="120.5"/><line class="cls-1" x1="1801.5" y1="0.5" x2="1801.5" y2="1080.5"/><line class="cls-1" x1="1681.5" y1="0.5" x2="1681.5" y2="1080.5"/><line class="cls-1" x1="1561.5" y1="0.5" x2="1561.5" y2="1080.5"/><line class="cls-1" x1="1441.5" y1="0.5" x2="1441.5" y2="1080.5"/><line class="cls-1" x1="1321.5" y1="0.5" x2="1321.5" y2="1080.5"/><line class="cls-1" x1="1201.5" y1="0.5" x2="1201.5" y2="1080.5"/><line class="cls-1" x1="1081.5" y1="0.5" x2="1081.5" y2="1080.5"/><line class="cls-1" x1="961.5" y1="0.5" x2="961.5" y2="1080.5"/><line class="cls-1" x1="841.5" y1="0.5" x2="841.5" y2="1080.5"/><line class="cls-1" x1="721.5" y1="0.5" x2="721.5" y2="1080.5"/><line class="cls-1" x1="601.5" y1="0.5" x2="601.5" y2="1080.5"/><line class="cls-1" x1="481.5" y1="0.5" x2="481.5" y2="1080.5"/><line class="cls-1" x1="361.5" y1="0.5" x2="361.5" y2="1080.5"/><line class="cls-1" x1="241.5" y1="0.5" x2="241.5" y2="1080.5"/><line class="cls-1" x1="121.5" y1="0.5" x2="121.5" y2="1080.5"/></g><g id="Fond"><polygon class="cls-2" points="1921 1 1921 1081 1178.25 1081 1 1081 1 1 1921 1"/><ellipse class="cls-3" cx="306.5" cy="156.5" rx="169.5" ry="102.5"/><ellipse class="cls-3" cx="470.5" cy="249" rx="100.5" ry="56"/><ellipse class="cls-3" cx="840" cy="192" rx="161" ry="113"/><ellipse class="cls-3" cx="750.5" cy="465.5" rx="103.5" ry="49.5"/><ellipse class="cls-3" cx="1545.5" cy="205" rx="331.5" ry="126"/><ellipse class="cls-3" cx="1333" cy="478" rx="151" ry="62"/><ellipse class="cls-3" cx="1208" cy="398" rx="69" ry="41"/><ellipse class="cls-3" cx="428" cy="720" rx="176" ry="115"/></g><g id="_1erplan" data-name="1erplan"><rect class="cls-4" x="1.5" y="960.5" width="1920" height="120" rx="12"/><rect class="cls-4" x="241.5" y="720.5" width="240" height="240" rx="12"/><rect class="cls-4" x="1441.5" y="720.5" width="240" height="240" rx="12"/><path class="cls-5" d="M600.5,959.5c75-88,0-480,0-480h78c42,91,48,357,19,480C696.72,962.82,600.5,959.5,600.5,959.5Z" transform="translate(1 1)"/><path class="cls-6" d="M680.5,481.5c33-66,137-46,137-46-119-73-105,6.81-68-63,26-49,71-50,71-50-96-53-131,36-131,36-11-71,92-103,92-103-106-27-127,95-127,95s8-54-29-99c-48.09-58.49-149,37-149,37,55-34,113,54,113,54s-44-53-88-30c-111,58-70,140-70,140,19-50,99-40,99-40-42,62-14,115-14,115,20-36,69.53-46.15,81.82-46.15,2.63,0,4.18.15,4.18.15Z" transform="translate(1 1)"/><path class="cls-5" d="M1142.5,959.5c75-88,0-480,0-480h78c42,91,48,357,19,480C1238.71,962.82,1142.5,959.5,1142.5,959.5Z" transform="translate(1 1)"/><path class="cls-6" d="M1222.5,481.5c33-66,137-46,137-46-119-73-105,6.81-68-63,26-49,71-50,71-50-96-53-131,36-131,36-11-71,92-103,92-103-106-27-127,95-127,95s8-54-29-99c-48.09-58.49-149,37-149,37,55-34,113,54,113,54s-44-53-88-30c-111,58-70,140-70,140,19-50,99-40,99-40-42,62-14,115-14,115,20-36,69.52-46.15,81.81-46.15,2.63,0,4.19.15,4.19.15Z" transform="translate(1 1)"/></g></svg>