<svg id="Calque_1" data-name="Calque 1" xmlns="http://www.w3.org/2000/svg" viewBox="0 0 583.48 556.92"><defs><style>.cls-1{fill:#85272d;}.cls-2,.cls-4{fill:#c69c6d;}.cls-3{fill:#fff;}.cls-4{stroke:#000;stroke-miterlimit:10;stroke-width:5px;}</style></defs><circle class="cls-1" cx="243.57" cy="376.5" r="121.5"/><circle class="cls-2" cx="96.87" cy="132.75" r="43.2"/><circle class="cls-2" cx="389.87" cy="132.75" r="43.2"/><circle class="cls-1" cx="243.37" cy="146.5" r="146.5"/><path class="cls-2" d="M377.69,272.34c61.27-58.92,140.61-42.42,124.9,53.41,0,0,36.13,23.57,14.92,56.29,6.29,129.1-286.71,140.09-280.43,0-21.21-26.44,11.93-56.29,11.78-56.29C241.94,272.34,312.49,186.72,377.69,272.34Z" transform="translate(-133.93 -193)"/><ellipse class="cls-3" cx="178.56" cy="106.05" rx="18.85" ry="26.71"/><ellipse class="cls-3" cx="305.03" cy="106.05" rx="18.85" ry="26.71"/><circle cx="169.13" cy="98.19" r="9.43"/><circle cx="295.6" cy="98.19" r="9.43"/><path class="cls-4" d="M377.69,389.38c-37.31,13-.79,27.49-.79,27.49s-39.67,20.82.4,31" transform="translate(-133.93 -193)"/><path class="cls-1" d="M266.28,520.53C97,516,201.82,402.28,201.82,402.28L168,369C56,560,256,570,256,570Z" transform="translate(-133.93 -193)"/><path class="cls-2" d="M168,369c-3-33,13-88,32-97s39-12,42,12-42,118-42,118Z" transform="translate(-133.93 -193)"/><path class="cls-1" d="M480.58,512.32C649.87,507.79,545,394.08,545,394.08l33.83-33.29c112,191-88,201-88,201Z" transform="translate(-133.93 -193)"/><path class="cls-2" d="M578.87,360.79c3-33-13-88-32-97s-39-12-42,12,42,118,42,118Z" transform="translate(-133.93 -193)"/><path class="cls-2" d="M303,654c-98,25-71,62-71,62s-13,39,42,33c40.28-4.39,69.07-40.06,70.53-62.53S303,654,303,654Z" transform="translate(-133.93 -193)"/><path class="cls-2" d="M449.46,654.29c98,25,71,62,71,62s13,39-42,33c-40.29-4.39-69.07-40-70.54-62.52S449.46,654.29,449.46,654.29Z" transform="translate(-133.93 -193)"/><path class="cls-1" d="M491,611c50.06-6.84,82.5-79.5,159.5-103.5,95-29.6,71.54,60.31,35,68-19,4-20.88-10.89-8-25,21-23-16-30-42-16-46.1,24.82-98.25,107.74-156.62,103.37S491,611,491,611Z" transform="translate(-133.93 -193)"/></svg>